STARTFONT 2.1
COMMENT
COMMENT Converted from OpenType font "neon_pixel-7.ttf" by "otf2bdf 3.0".
COMMENT
FONT -FreeType-Neon Pixel 7-Medium-R-Normal--17-120-100-100-P-68-ISO10646-1
SIZE 12 100 100
FONTBOUNDINGBOX 7 13 0 -1
STARTPROPERTIES 19
FOUNDRY "FreeType"
FAMILY_NAME "Neon Pixel 7"
WEIGHT_NAME "Medium"
SLANT "R"
SETWIDTH_NAME "Normal"
ADD_STYLE_NAME ""
PIXEL_SIZE 17
POINT_SIZE 120
RESOLUTION_X 100
RESOLUTION_Y 100
SPACING "P"
AVERAGE_WIDTH 68
CHARSET_REGISTRY "ISO10646"
CHARSET_ENCODING "1"
FONT_ASCENT 12
FONT_DESCENT 4
COPYRIGHT "Copyright (c) 2012 by Style-7. All rights reserved. http://www.styleseven.com"
_OTF_FONTFILE "neon_pixel-7.ttf"
_OTF_PSNAME "NeonPixel-7"
ENDPROPERTIES
CHARS 96
STARTCHAR 0020
ENCODING 32
SWIDTH 480 0
DWIDTH 8 0
BBX 0 0 0 0
BITMAP
ENDCHAR
STARTCHAR 0021
ENCODING 33
SWIDTH 480 0
DWIDTH 8 0
BBX 3 11 2 0
BITMAP
E0
E0
E0
E0
E0
E0
E0
E0
40
E0
C0
ENDCHAR
STARTCHAR 0022
ENCODING 34
SWIDTH 420 0
DWIDTH 7 0
BBX 6 4 0 7
BITMAP
FC
FC
FC
48
ENDCHAR
STARTCHAR 0023
ENCODING 35
SWIDTH 480 0
DWIDTH 8 0
BBX 7 11 0 0
BITMAP
EC
FC
FA
FC
EC
EC
EC
FC
FA
EC
C8
ENDCHAR
STARTCHAR 0024
ENCODING 36
SWIDTH 480 0
DWIDTH 8 0
BBX 7 13 0 -1
BITMAP
10
FC
FC
E0
E0
FC
FA
7E
0E
0E
FA
94
78
ENDCHAR
STARTCHAR 0025
ENCODING 37
SWIDTH 480 0
DWIDTH 8 0
BBX 7 11 0 0
BITMAP
EE
EE
4E
16
1C
38
70
E0
E4
EE
EE
ENDCHAR
STARTCHAR 0026
ENCODING 38
SWIDTH 480 0
DWIDTH 8 0
BBX 7 11 0 0
BITMAP
F8
FC
FC
FC
FC
B6
FC
FC
FC
B6
FE
ENDCHAR
STARTCHAR 0027
ENCODING 39
SWIDTH 480 0
DWIDTH 8 0
BBX 3 4 2 7
BITMAP
E0
E0
E0
40
ENDCHAR
STARTCHAR 0028
ENCODING 40
SWIDTH 480 0
DWIDTH 8 0
BBX 5 11 2 0
BITMAP
78
F8
E0
E0
E0
E0
E0
E0
E0
F8
78
ENDCHAR
STARTCHAR 0029
ENCODING 41
SWIDTH 480 0
DWIDTH 8 0
BBX 5 11 0 0
BITMAP
F0
F8
38
38
38
38
38
38
38
F8
F0
ENDCHAR
STARTCHAR 002A
ENCODING 42
SWIDTH 420 0
DWIDTH 7 0
BBX 6 6 0 2
BITMAP
CC
FC
78
78
FC
CC
ENDCHAR
STARTCHAR 002B
ENCODING 43
SWIDTH 480 0
DWIDTH 8 0
BBX 7 7 0 2
BITMAP
10
38
7C
FE
7C
38
10
ENDCHAR
STARTCHAR 002C
ENCODING 44
SWIDTH 480 0
DWIDTH 8 0
BBX 4 3 2 0
BITMAP
E0
F0
70
ENDCHAR
STARTCHAR 002D
ENCODING 45
SWIDTH 480 0
DWIDTH 8 0
BBX 7 3 0 4
BITMAP
7C
FE
7C
ENDCHAR
STARTCHAR 002E
ENCODING 46
SWIDTH 480 0
DWIDTH 8 0
BBX 3 2 2 0
BITMAP
E0
C0
ENDCHAR
STARTCHAR 002F
ENCODING 47
SWIDTH 480 0
DWIDTH 8 0
BBX 7 11 0 0
BITMAP
0E
0E
0E
16
1C
38
70
E0
E0
E0
E0
ENDCHAR
STARTCHAR 0030
ENCODING 48
SWIDTH 420 0
DWIDTH 7 0
BBX 7 11 0 0
BITMAP
FC
BA
EE
EE
EE
EE
EE
EE
EE
BA
FC
ENDCHAR
STARTCHAR 0031
ENCODING 49
SWIDTH 420 0
DWIDTH 7 0
BBX 7 11 0 0
BITMAP
F0
68
38
38
38
38
38
38
38
EE
FC
ENDCHAR
STARTCHAR 0032
ENCODING 50
SWIDTH 420 0
DWIDTH 7 0
BBX 7 11 0 0
BITMAP
FC
7E
0E
0E
7E
BE
FC
E0
E0
BE
FE
ENDCHAR
STARTCHAR 0033
ENCODING 51
SWIDTH 420 0
DWIDTH 7 0
BBX 7 11 0 0
BITMAP
FC
FE
0E
0E
7E
FA
7E
0E
0E
FA
FC
ENDCHAR
STARTCHAR 0034
ENCODING 52
SWIDTH 420 0
DWIDTH 7 0
BBX 7 11 0 0
BITMAP
EE
EE
EE
EE
FE
BA
7E
0E
0E
0E
0E
ENDCHAR
STARTCHAR 0035
ENCODING 53
SWIDTH 420 0
DWIDTH 7 0
BBX 7 11 0 0
BITMAP
FC
FC
E0
E0
FC
FA
7E
0E
0E
FA
FC
ENDCHAR
STARTCHAR 0036
ENCODING 54
SWIDTH 420 0
DWIDTH 7 0
BBX 7 11 0 0
BITMAP
FC
FC
E0
E0
FC
FA
FE
EE
EE
BA
FC
ENDCHAR
STARTCHAR 0037
ENCODING 55
SWIDTH 420 0
DWIDTH 7 0
BBX 7 11 0 0
BITMAP
FC
FE
EE
EE
EE
4E
0E
0E
0E
0E
0E
ENDCHAR
STARTCHAR 0038
ENCODING 56
SWIDTH 420 0
DWIDTH 7 0
BBX 7 11 0 0
BITMAP
FC
FE
EE
EE
FE
BA
FE
EE
EE
BA
FC
ENDCHAR
STARTCHAR 0039
ENCODING 57
SWIDTH 420 0
DWIDTH 7 0
BBX 7 11 0 0
BITMAP
FC
FE
EE
EE
FE
BA
7E
0E
0E
FA
FC
ENDCHAR
STARTCHAR 003A
ENCODING 58
SWIDTH 480 0
DWIDTH 8 0
BBX 3 7 2 2
BITMAP
40
E0
40
00
40
E0
40
ENDCHAR
STARTCHAR 003B
ENCODING 59
SWIDTH 480 0
DWIDTH 8 0
BBX 4 9 2 0
BITMAP
40
E0
40
00
00
00
E0
F0
70
ENDCHAR
STARTCHAR 003C
ENCODING 60
SWIDTH 420 0
DWIDTH 7 0
BBX 5 7 0 2
BITMAP
18
38
70
E0
70
38
18
ENDCHAR
STARTCHAR 003D
ENCODING 61
SWIDTH 480 0
DWIDTH 8 0
BBX 7 7 0 2
BITMAP
7C
FE
7C
00
7C
FE
7C
ENDCHAR
STARTCHAR 003E
ENCODING 62
SWIDTH 420 0
DWIDTH 7 0
BBX 5 7 0 2
BITMAP
C0
E0
70
58
70
E0
C0
ENDCHAR
STARTCHAR 003F
ENCODING 63
SWIDTH 480 0
DWIDTH 8 0
BBX 7 11 0 0
BITMAP
FC
7E
0E
0E
1E
2E
3C
38
10
38
30
ENDCHAR
STARTCHAR 0040
ENCODING 64
SWIDTH 480 0
DWIDTH 8 0
BBX 7 11 0 0
BITMAP
FC
FE
EE
EE
EE
FE
FA
EC
E0
BE
FE
ENDCHAR
STARTCHAR 0041
ENCODING 65
SWIDTH 480 0
DWIDTH 8 0
BBX 7 11 0 0
BITMAP
FC
FE
EE
EE
FE
BA
FE
EE
EE
EE
EE
ENDCHAR
STARTCHAR 0042
ENCODING 66
SWIDTH 480 0
DWIDTH 8 0
BBX 7 11 0 0
BITMAP
FC
FE
EE
EE
F6
FA
F6
EE
EE
FE
FC
ENDCHAR
STARTCHAR 0043
ENCODING 67
SWIDTH 480 0
DWIDTH 8 0
BBX 7 11 0 0
BITMAP
FC
BC
E0
E0
E0
E0
E0
E0
E0
BE
FE
ENDCHAR
STARTCHAR 0044
ENCODING 68
SWIDTH 480 0
DWIDTH 8 0
BBX 7 11 0 0
BITMAP
FC
FE
EE
EE
EE
EE
EE
EE
EE
FE
FC
ENDCHAR
STARTCHAR 0045
ENCODING 69
SWIDTH 480 0
DWIDTH 8 0
BBX 7 11 0 0
BITMAP
FC
FC
E0
E0
F8
BC
F8
E0
E0
BE
FE
ENDCHAR
STARTCHAR 0046
ENCODING 70
SWIDTH 480 0
DWIDTH 8 0
BBX 6 11 0 0
BITMAP
FC
FC
E0
E0
F8
BC
F8
E0
E0
E0
E0
ENDCHAR
STARTCHAR 0047
ENCODING 71
SWIDTH 480 0
DWIDTH 8 0
BBX 7 11 0 0
BITMAP
FC
BC
E0
E0
EC
FA
EE
EE
EE
BA
FC
ENDCHAR
STARTCHAR 0048
ENCODING 72
SWIDTH 480 0
DWIDTH 8 0
BBX 7 11 0 0
BITMAP
EE
EE
EE
EE
FE
BA
FE
EE
EE
EE
EE
ENDCHAR
STARTCHAR 0049
ENCODING 73
SWIDTH 480 0
DWIDTH 8 0
BBX 7 11 0 0
BITMAP
FC
6C
38
38
38
38
38
38
38
EE
FC
ENDCHAR
STARTCHAR 004A
ENCODING 74
SWIDTH 480 0
DWIDTH 8 0
BBX 7 11 0 0
BITMAP
FC
7A
0E
0E
0E
EE
EE
EE
EE
BA
FC
ENDCHAR
STARTCHAR 004B
ENCODING 75
SWIDTH 480 0
DWIDTH 8 0
BBX 7 11 0 0
BITMAP
EE
EE
EE
F6
FC
F8
FC
F6
EE
EE
EE
ENDCHAR
STARTCHAR 004C
ENCODING 76
SWIDTH 480 0
DWIDTH 8 0
BBX 7 11 0 0
BITMAP
E0
E0
E0
E0
E0
E0
E0
E0
E0
BE
FE
ENDCHAR
STARTCHAR 004D
ENCODING 77
SWIDTH 480 0
DWIDTH 8 0
BBX 7 11 0 0
BITMAP
EE
EE
EE
F6
FE
EE
FE
EE
EE
EE
CC
ENDCHAR
STARTCHAR 004E
ENCODING 78
SWIDTH 480 0
DWIDTH 8 0
BBX 7 11 0 0
BITMAP
EE
EE
EE
EE
FE
FE
FE
F6
EE
EE
EE
ENDCHAR
STARTCHAR 004F
ENCODING 79
SWIDTH 480 0
DWIDTH 8 0
BBX 7 11 0 0
BITMAP
FC
BA
EE
EE
EE
EE
EE
EE
EE
BA
FC
ENDCHAR
STARTCHAR 0050
ENCODING 80
SWIDTH 480 0
DWIDTH 8 0
BBX 7 11 0 0
BITMAP
FC
FE
EE
EE
FE
BA
FC
E0
E0
E0
E0
ENDCHAR
STARTCHAR 0051
ENCODING 81
SWIDTH 480 0
DWIDTH 8 0
BBX 7 11 0 0
BITMAP
FC
BA
EE
EE
EE
EE
EE
EE
FE
F4
F8
ENDCHAR
STARTCHAR 0052
ENCODING 82
SWIDTH 480 0
DWIDTH 8 0
BBX 7 11 0 0
BITMAP
FC
FE
EE
EE
FE
FA
FC
F6
EE
EE
EE
ENDCHAR
STARTCHAR 0053
ENCODING 83
SWIDTH 480 0
DWIDTH 8 0
BBX 7 11 0 0
BITMAP
FC
FC
E0
E0
FC
FA
7E
0E
0E
FA
FC
ENDCHAR
STARTCHAR 0054
ENCODING 84
SWIDTH 480 0
DWIDTH 8 0
BBX 6 11 0 0
BITMAP
FC
6C
38
38
38
38
38
38
38
38
38
ENDCHAR
STARTCHAR 0055
ENCODING 85
SWIDTH 480 0
DWIDTH 8 0
BBX 7 11 0 0
BITMAP
EE
EE
EE
EE
EE
EE
EE
EE
EE
BA
FC
ENDCHAR
STARTCHAR 0056
ENCODING 86
SWIDTH 480 0
DWIDTH 8 0
BBX 7 11 0 0
BITMAP
EE
EE
EE
EE
EE
EE
EE
F6
BA
7C
30
ENDCHAR
STARTCHAR 0057
ENCODING 87
SWIDTH 480 0
DWIDTH 8 0
BBX 7 11 0 0
BITMAP
EE
EE
EE
EE
EE
EE
FE
FE
F6
FE
EE
ENDCHAR
STARTCHAR 0058
ENCODING 88
SWIDTH 480 0
DWIDTH 8 0
BBX 7 11 0 0
BITMAP
EE
EE
EE
F6
7C
38
7C
F6
EE
EE
EE
ENDCHAR
STARTCHAR 0059
ENCODING 89
SWIDTH 480 0
DWIDTH 8 0
BBX 7 11 0 0
BITMAP
EE
EE
EE
F6
7C
58
38
38
38
38
38
ENDCHAR
STARTCHAR 005A
ENCODING 90
SWIDTH 480 0
DWIDTH 8 0
BBX 7 11 0 0
BITMAP
FC
7E
0E
0E
1C
38
70
E0
E0
FE
FC
ENDCHAR
STARTCHAR 005B
ENCODING 91
SWIDTH 480 0
DWIDTH 8 0
BBX 5 11 2 0
BITMAP
F0
B0
E0
E0
E0
E0
E0
E0
E0
B8
F0
ENDCHAR
STARTCHAR 005C
ENCODING 92
SWIDTH 480 0
DWIDTH 8 0
BBX 7 11 0 0
BITMAP
E0
E0
E0
E0
70
38
1C
16
0E
0E
0E
ENDCHAR
STARTCHAR 005D
ENCODING 93
SWIDTH 480 0
DWIDTH 8 0
BBX 5 11 0 0
BITMAP
F0
68
38
38
38
38
38
38
38
E8
F0
ENDCHAR
STARTCHAR 005E
ENCODING 94
SWIDTH 480 0
DWIDTH 8 0
BBX 7 5 0 6
BITMAP
38
58
7C
EE
C6
ENDCHAR
STARTCHAR 005F
ENCODING 95
SWIDTH 480 0
DWIDTH 8 0
BBX 7 3 0 0
BITMAP
7C
FE
7C
ENDCHAR
STARTCHAR 0060
ENCODING 96
SWIDTH 480 0
DWIDTH 8 0
BBX 4 4 2 8
BITMAP
40
E0
B0
70
ENDCHAR
STARTCHAR 0061
ENCODING 97
SWIDTH 480 0
DWIDTH 8 0
BBX 7 11 0 0
BITMAP
FC
FE
EE
EE
FE
BA
FE
EE
EE
EE
EE
ENDCHAR
STARTCHAR 0062
ENCODING 98
SWIDTH 480 0
DWIDTH 8 0
BBX 7 11 0 0
BITMAP
FC
FE
EE
EE
F6
FA
F6
EE
EE
FE
FC
ENDCHAR
STARTCHAR 0063
ENCODING 99
SWIDTH 480 0
DWIDTH 8 0
BBX 7 11 0 0
BITMAP
FC
BC
E0
E0
E0
E0
E0
E0
E0
BE
FE
ENDCHAR
STARTCHAR 0064
ENCODING 100
SWIDTH 480 0
DWIDTH 8 0
BBX 7 11 0 0
BITMAP
FC
FE
EE
EE
EE
EE
EE
EE
EE
FE
FC
ENDCHAR
STARTCHAR 0065
ENCODING 101
SWIDTH 480 0
DWIDTH 8 0
BBX 7 11 0 0
BITMAP
FC
FC
E0
E0
F8
BC
F8
E0
E0
BE
FE
ENDCHAR
STARTCHAR 0066
ENCODING 102
SWIDTH 480 0
DWIDTH 8 0
BBX 6 11 0 0
BITMAP
FC
FC
E0
E0
F8
BC
F8
E0
E0
E0
E0
ENDCHAR
STARTCHAR 0067
ENCODING 103
SWIDTH 480 0
DWIDTH 8 0
BBX 7 11 0 0
BITMAP
FC
BC
E0
E0
EC
FA
EE
EE
EE
BA
FC
ENDCHAR
STARTCHAR 0068
ENCODING 104
SWIDTH 480 0
DWIDTH 8 0
BBX 7 11 0 0
BITMAP
EE
EE
EE
EE
FE
BA
FE
EE
EE
EE
EE
ENDCHAR
STARTCHAR 0069
ENCODING 105
SWIDTH 480 0
DWIDTH 8 0
BBX 7 11 0 0
BITMAP
FC
6C
38
38
38
38
38
38
38
EE
FC
ENDCHAR
STARTCHAR 006A
ENCODING 106
SWIDTH 480 0
DWIDTH 8 0
BBX 7 11 0 0
BITMAP
FC
7A
0E
0E
0E
EE
EE
EE
EE
BA
FC
ENDCHAR
STARTCHAR 006B
ENCODING 107
SWIDTH 480 0
DWIDTH 8 0
BBX 7 11 0 0
BITMAP
EE
EE
EE
F6
FC
F8
FC
F6
EE
EE
EE
ENDCHAR
STARTCHAR 006C
ENCODING 108
SWIDTH 480 0
DWIDTH 8 0
BBX 7 11 0 0
BITMAP
E0
E0
E0
E0
E0
E0
E0
E0
E0
BE
FE
ENDCHAR
STARTCHAR 006D
ENCODING 109
SWIDTH 480 0
DWIDTH 8 0
BBX 7 11 0 0
BITMAP
EE
EE
EE
F6
FE
EE
FE
EE
EE
EE
CC
ENDCHAR
STARTCHAR 006E
ENCODING 110
SWIDTH 480 0
DWIDTH 8 0
BBX 7 11 0 0
BITMAP
EE
EE
EE
EE
FE
FE
FE
F6
EE
EE
EE
ENDCHAR
STARTCHAR 006F
ENCODING 111
SWIDTH 480 0
DWIDTH 8 0
BBX 7 11 0 0
BITMAP
FC
BA
EE
EE
EE
EE
EE
EE
EE
BA
FC
ENDCHAR
STARTCHAR 0070
ENCODING 112
SWIDTH 480 0
DWIDTH 8 0
BBX 7 11 0 0
BITMAP
FC
FE
EE
EE
FE
BA
FC
E0
E0
E0
E0
ENDCHAR
STARTCHAR 0071
ENCODING 113
SWIDTH 480 0
DWIDTH 8 0
BBX 7 11 0 0
BITMAP
FC
BA
EE
EE
EE
EE
EE
EE
FE
F4
F8
ENDCHAR
STARTCHAR 0072
ENCODING 114
SWIDTH 480 0
DWIDTH 8 0
BBX 7 11 0 0
BITMAP
FC
FE
EE
EE
FE
FA
FC
F6
EE
EE
EE
ENDCHAR
STARTCHAR 0073
ENCODING 115
SWIDTH 480 0
DWIDTH 8 0
BBX 7 11 0 0
BITMAP
FC
FC
E0
E0
FC
FA
7E
0E
0E
FA
FC
ENDCHAR
STARTCHAR 0074
ENCODING 116
SWIDTH 480 0
DWIDTH 8 0
BBX 6 11 0 0
BITMAP
FC
6C
38
38
38
38
38
38
38
38
38
ENDCHAR
STARTCHAR 0075
ENCODING 117
SWIDTH 480 0
DWIDTH 8 0
BBX 7 11 0 0
BITMAP
EE
EE
EE
EE
EE
EE
EE
EE
EE
BA
FC
ENDCHAR
STARTCHAR 0076
ENCODING 118
SWIDTH 480 0
DWIDTH 8 0
BBX 7 11 0 0
BITMAP
EE
EE
EE
EE
EE
EE
EE
F6
BA
7C
30
ENDCHAR
STARTCHAR 0077
ENCODING 119
SWIDTH 480 0
DWIDTH 8 0
BBX 7 11 0 0
BITMAP
EE
EE
EE
EE
EE
EE
FE
FE
F6
FE
EE
ENDCHAR
STARTCHAR 0078
ENCODING 120
SWIDTH 480 0
DWIDTH 8 0
BBX 7 11 0 0
BITMAP
EE
EE
EE
F6
7C
38
7C
F6
EE
EE
EE
ENDCHAR
STARTCHAR 0079
ENCODING 121
SWIDTH 480 0
DWIDTH 8 0
BBX 7 11 0 0
BITMAP
EE
EE
EE
F6
7C
58
38
38
38
38
38
ENDCHAR
STARTCHAR 007A
ENCODING 122
SWIDTH 480 0
DWIDTH 8 0
BBX 7 11 0 0
BITMAP
FC
7E
0E
0E
1C
38
70
E0
E0
FE
FC
ENDCHAR
STARTCHAR 007B
ENCODING 123
SWIDTH 480 0
DWIDTH 8 0
BBX 6 11 1 0
BITMAP
3C
5C
70
70
70
D0
70
70
70
7C
3C
ENDCHAR
STARTCHAR 007C
ENCODING 124
SWIDTH 480 0
DWIDTH 8 0
BBX 3 11 2 0
BITMAP
E0
E0
E0
E0
E0
E0
E0
E0
E0
E0
E0
ENDCHAR
STARTCHAR 007D
ENCODING 125
SWIDTH 420 0
DWIDTH 7 0
BBX 6 11 0 0
BITMAP
F0
E8
38
38
38
2C
38
38
38
F8
F0
ENDCHAR
STARTCHAR 007E
ENCODING 126
SWIDTH 420 0
DWIDTH 7 0
BBX 6 4 0 7
BITMAP
6C
BC
F8
D8
ENDCHAR
STARTCHAR 00A0
ENCODING 160
SWIDTH 480 0
DWIDTH 8 0
BBX 0 0 0 0
BITMAP
ENDCHAR
ENDFONT
